<?xml version="1.0" encoding="UTF-8"?><svg id="Layer_1" xmlns="http://www.w3.org/2000/svg" xmlns:xlink="http://www.w3.org/1999/xlink" viewBox="0 0 423.21 403.33"><defs><style>.cls-1,.cls-2{fill:none;}.cls-3{clip-path:url(#clippath);}.cls-4{fill:#d1d3d4;}.cls-5{fill:#0d4ba0;}.cls-6{filter:url(#drop-shadow-2);}.cls-7{filter:url(#drop-shadow-1);}.cls-2{stroke:#0d4ba0;stroke-width:2px;}.cls-2,.cls-8{stroke-miterlimit:10;}.cls-9{fill:url(#linear-gradient-3);}.cls-10{fill:url(#linear-gradient-2);}.cls-8{fill:url(#linear-gradient);stroke:#231f20;stroke-width:6px;}</style><clipPath id="clippath"><path class="cls-4" d="m15.52,352.14c7.93-37.82,41.28-64.91,79.93-64.91h145.61c15.83,0,24.32-8.53,26.49-18.88,2.42-11.57-3.61-17.66-19.44-17.66h-95.61c-69.43,0-115.01-35.32-98.04-116.32C72.32,49.11,148.99,17.44,208.06,17.44h135.5c43.8,0,76.52,40.28,67.53,83.15h0c-1.89,9.04-9.86,15.51-19.09,15.51h-185.13c-15.23,0-22.97,7.92-25.02,17.66-2.04,9.74,2.26,18.27,17.49,18.27h81.61c87.69,0,128.8,45.07,114.38,113.88-14.42,68.82-77.51,119.97-161.55,119.97H42.92c-17.77,0-31.05-16.35-27.4-33.74h0Z"/></clipPath><linearGradient id="linear-gradient" x1="8.45" y1="201.66" x2="428.51" y2="201.66" gradientUnits="userSpaceOnUse"><stop offset="0" stop-color="#5e75b8"/><stop offset="1" stop-color="#071759"/></linearGradient><filter id="drop-shadow-1" filterUnits="userSpaceOnUse"><feOffset dx="-12" dy="7"/><feGaussianBlur result="blur" stdDeviation="12"/><feFlood flood-color="#231f20" flood-opacity=".44"/><feComposite in2="blur" operator="in"/><feComposite in="SourceGraphic"/></filter><linearGradient id="linear-gradient-2" x1="7.93" y1="201.66" x2="427.99" y2="201.66" xlink:href="#linear-gradient"/><filter id="drop-shadow-2" filterUnits="userSpaceOnUse"><feOffset dx="12" dy="-7"/><feGaussianBlur result="blur-2" stdDeviation="12"/><feFlood flood-color="#231f20" flood-opacity=".44"/><feComposite in2="blur-2" operator="in"/><feComposite in="SourceGraphic"/></filter><linearGradient id="linear-gradient-3" x1="7.93" y1="203.2" x2="427.99" y2="203.2" xlink:href="#linear-gradient"/><clipPath id="clippath-1"><path class="cls-1" d="m451.8,350.89c7.93-37.82,41.28-64.91,79.93-64.91h145.61c15.83,0,24.32-8.53,26.49-18.88,2.42-11.57-3.61-17.66-19.44-17.66h-95.61c-69.43,0-115.01-35.32-98.04-116.32,17.86-85.26,94.53-116.93,153.61-116.93h135.5c43.8,0,76.52,40.28,67.53,83.15h0c-1.89,9.04-9.86,15.51-19.09,15.51h-185.13c-15.23,0-22.97,7.92-25.02,17.66-2.04,9.74,2.26,18.27,17.49,18.27h81.61c87.69,0,128.8,45.07,114.38,113.88-14.42,68.82-77.51,119.97-161.55,119.97h-190.85c-17.77,0-31.05-16.35-27.4-33.74h0Z"/></clipPath><filter id="drop-shadow-4" filterUnits="userSpaceOnUse"><feOffset dx="-12" dy="7"/><feGaussianBlur result="blur-3" stdDeviation="12"/><feFlood flood-color="#231f20" flood-opacity=".44"/><feComposite in2="blur-3" operator="in"/><feComposite in="SourceGraphic"/></filter></defs><path class="cls-4" d="m15.52,352.14c7.93-37.82,41.28-64.91,79.93-64.91h145.61c15.83,0,24.32-8.53,26.49-18.88,2.42-11.57-3.61-17.66-19.44-17.66h-95.61c-69.43,0-115.01-35.32-98.04-116.32C72.32,49.11,148.99,17.44,208.06,17.44h135.5c43.8,0,76.52,40.28,67.53,83.15h0c-1.89,9.04-9.86,15.51-19.09,15.51h-185.13c-15.23,0-22.97,7.92-25.02,17.66-2.04,9.74,2.26,18.27,17.49,18.27h81.61c87.69,0,128.8,45.07,114.38,113.88-14.42,68.82-77.51,119.97-161.55,119.97H42.92c-17.77,0-31.05-16.35-27.4-33.74h0Z"/><g class="cls-3"><path class="cls-8" d="m29.12,287.23h211.93c15.83,0,24.32-8.53,26.49-18.88,2.42-11.57-3.61-17.66-19.44-17.66h-95.61c-69.43,0-115.01-35.32-98.04-116.32C72.32,49.11,148.99,17.44,208.06,17.44h220.46l-20.67,98.66h-200.97c-15.23,0-22.97,7.92-25.02,17.66-2.04,9.74,2.26,18.27,17.49,18.27h81.61c87.69,0,128.8,45.07,114.38,113.88-14.42,68.82-77.51,119.97-161.55,119.97H8.45l20.67-98.66Z"/><path class="cls-5" d="m29.12,287.23h211.93c15.83,0,24.32-8.53,26.49-18.88,2.42-11.57-3.61-17.66-19.44-17.66h-95.61c-69.43,0-115.01-35.32-98.04-116.32C72.32,49.11,148.99,17.44,208.06,17.44h220.46l-20.67,98.66h-200.97c-15.23,0-22.97,7.92-25.02,17.66-2.04,9.74,2.26,18.27,17.49,18.27h81.61c87.69,0,128.8,45.07,114.38,113.88-14.42,68.82-77.51,119.97-161.55,119.97H8.45l20.67-98.66Z"/><g class="cls-7"><path class="cls-10" d="m226.26,113.04c2.65.74,5.1,1.77,7.35,3.06h173.71l20.67-98.66h-220.46c-52.15,0-134.32,152.04-111.44,171.96,17.4,15.16,39.88,23.18,62.32,28.57,17.88,4.3,36.11,7.15,54.45,8.51,13.6,1.01,27.58,1.27,40.22,6.38,5.51,2.23,10.8,5.49,14.18,10.37,9.7,14.02,4.77,32.92-10.54,40.06-8.13,3.8-17.38,4.32-26.35,4.14-57.34-1.2-114.93-.22-172.36-.22h-29.42l-20.67,98.66h225.33c61.88,0,131.03-158.35,106.45-178.01-11.97-9.57-27.04-14.41-42.07-17.41-31.96-6.37-65.38-5.31-96.47-15.07-10.68-3.36-22.09-9.15-25.45-19.83-8.84-28.14,26.98-49.06,50.54-42.51Z"/></g><g class="cls-6"><path class="cls-9" d="m194.92,117.5l212.4-1.4,20.67-98.66h-220.46c-26.37,0-53.45,2.18-76.82,15.48-10.59,6.03-20.03,13.85-28.74,22.31-5.27,5.11-10.29,10.47-15.17,15.95-32.93,36.91-18.16,110.12,20.41,137.12,29.8,20.86,68.88,15.78,103.21,18.01.81.05,1.63.11,2.44.17,13.6,1.01,27.58,1.27,40.22,6.38,5.51,2.23,10.8,5.49,14.18,10.37,9.7,14.02,4.77,32.92-10.54,40.06-8.13,3.8-17.38,4.32-26.35,4.14-57.34-1.2-114.93-.22-172.36-.22h-29.42l-20.67,98.66s225.22-.02,225.33,0c124.56,21.1,137.87-73.7,136.9-64.55,25.17-55.42-5.87-93.8-30.45-113.46-11.97-9.57-27.04-14.41-42.07-17.41-31.96-6.37-65.38-5.31-96.47-15.07-10.68-3.36-22.09-9.15-25.45-19.83-8.84-28.14,16.95-39.34,19.2-38.05Z"/></g></g><path class="cls-2" d="m237.39,385.2H41.55c-.83-.11-1.66-.21-2.48-.33-11.13-1.55-20.28-9.65-23.15-20.57-.45-1.72-.68-3.51-1.01-5.26,0-1.2,0-2.4,0-3.6.21-1.29.36-2.6.64-3.88,4.15-19.19,13.79-35.04,29.15-47.27,14.28-11.37,30.65-17.55,48.91-17.62,48.2-.2,96.4-.06,144.6-.09,2.95,0,5.93-.08,8.84-.49,11.39-1.6,19.05-9.24,20.75-20,1.11-7.03-1.51-11.99-7.7-14.31-3.53-1.32-7.21-1.74-10.95-1.74-31.36,0-62.72,0-94.08,0-9.48,0-18.94-.43-28.33-1.85-12.28-1.85-24.14-5.1-35.23-10.82-12.55-6.47-22.75-15.49-29.9-27.76-7.07-12.13-10.05-25.39-10.64-39.28-.38-8.81.25-17.58,1.59-26.29,2.01-13.12,5.27-25.87,10.47-38.12,11.17-26.33,28.77-47.26,52.83-62.64,27.79-17.77,58.41-26.26,91.26-26.42,45.56-.23,91.12-.08,136.68-.01,4.01,0,8.09.32,12.03,1.05,17.57,3.23,31.83,12.04,42.68,26.22,7.28,9.51,11.73,20.26,13.34,32.16.29,2.17.49,4.35.74,6.53v5.52c-.16,1.82-.2,3.67-.51,5.46-.55,3.14-.79,6.45-2.03,9.32-3.58,8.29-10.19,12.28-19.22,12.28-43.31,0-86.63,0-129.94,0-18.24,0-36.47.01-54.71.09-2.3,0-4.64.26-6.89.73-11.35,2.38-18.46,11.37-17.79,22.47.27,4.51,2.38,7.98,6.4,10.17,3.31,1.81,6.92,2.39,10.64,2.39,28.47.03,56.95.03,85.42.09,10.29.02,20.52.84,30.68,2.48,13.84,2.24,27.2,6.01,39.7,12.48,11.86,6.14,22.03,14.3,29.76,25.3,9.76,13.88,13.84,29.51,14.08,46.28.21,14.77-2.39,29.12-7.07,43.09-9.78,29.2-27.32,52.82-51.94,71.19-18.32,13.67-38.79,22.72-60.97,28-11.18,2.66-22.51,4.23-33.99,4.74-2.27.1-4.54.21-6.81.32Z"/></svg>